<?xml version="1.0" encoding="UTF-8"?>
<!DOCTYPE svg PUBLIC "-//W3C//DTD SVG 1.1//EN" "http://www.w3.org/Graphics/SVG/1.1/DTD/svg11.dtd">
<!-- Creator: CorelDRAW Home & Student 2018 -->
<svg xmlns="http://www.w3.org/2000/svg" xml:space="preserve" width="550mm" height="550mm" version="1.1" style="shape-rendering:geometricPrecision; text-rendering:geometricPrecision; image-rendering:optimizeQuality; fill-rule:evenodd; clip-rule:evenodd"
viewBox="0 0 55000 55000"
 xmlns:xlink="http://www.w3.org/1999/xlink">
 <defs>
  <style type="text/css">
   <![CDATA[
    .fil1 {fill:#394959}
    .fil0 {fill:#227EE1;fill-rule:nonzero}
   ]]>
  </style>
 </defs>
 <g id="Planet">
  <metadata id="CorelCorpID_0Corel-Layer"/>
  <path class="fil0" d="M23678.53 46753.62c-1334.56,-2281.94 -2440.21,-4659.08 -3296.79,-7117.88 1101.03,313.79 2263.43,481.9 3465.13,481.9 1091.95,0 2151.46,-138.81 3161.96,-399.57 673.58,2500.41 1545.18,4933.03 2600.71,7286.9 1638.08,-178.04 3215.57,-557.84 4707.42,-1113.52 905.39,779.12 1866.18,1538.35 2880.78,2275.76 -1312.04,618.67 -2692.49,1116.16 -4126.82,1477.84l-858.01 3583.55c-213.04,890.38 -1009.26,1518.36 -1924.72,1518.36l-5639.53 0c-915.47,0 -1711.52,-627.98 -1924.73,-1518.36l-857.95 -3583.55c-2171.53,-547.52 -4219.31,-1406.16 -6093.25,-2525.52l-3142.38 1928.27c-780.34,478.74 -1787.27,359.81 -2434.67,-287.48l-3987.58 -3987.85c-647.4,-647.34 -766.27,-1654.17 -287.43,-2434.51l1928.27 -3142.17c-1119.57,-1873.94 -1978.16,-3921.82 -2525.78,-6093.56l-3583.34 -857.95c-890.44,-213.1 -1518.36,-1009.32 -1518.36,-1924.73l0 -5639.27c0,-915.62 627.92,-1711.67 1518.36,-1924.83l3583.34 -858.01c547.62,-2171.57 1406.21,-4219.3 2525.78,-6093.08l-1928.27 -3142.54c-478.84,-780.34 -359.97,-1787.12 287.43,-2434.67l3987.58 -3987.43c647.4,-647.55 1654.33,-766.58 2434.67,-287.8l3142.38 1928.38c1873.94,-1119.46 3921.72,-1978.11 6093.25,-2525.67l857.95 -3583.23c213.21,-890.39 1009.26,-1518.37 1924.73,-1518.37l5639.53 0c915.46,0 1711.68,627.98 1924.72,1518.37l858.01 3583.23c1434.4,361.73 2814.92,859.25 4127.03,1478.01 -1014.63,737.42 -1975.45,1496.67 -2880.87,2275.81 -1491.87,-555.68 -3069.39,-935.49 -4707.49,-1113.54 -1055.56,2353.91 -1927.18,4786.57 -2600.77,7287.02 -1010.5,-260.76 -2070,-399.57 -3161.95,-399.57 -1201.7,0 -2364.12,168.12 -3465.15,481.91 856.6,-2458.86 1962.29,-4836.06 3296.89,-7118.04 -9023.32,1765.72 -15832.49,9713.89 -15832.49,19253.52 0,9539.77 6809.13,17488.07 15832.41,19253.87zm29518.49 -23998.17l-3583.23 -858.01c-547.56,-2171.57 -1406.21,-4219.3 -2526.2,-6093.08l1928.38 -3142.54c479.31,-780.34 360.28,-1787.12 -287.28,-2434.67l-3987.42 -3987.43c-647.55,-647.55 -1654.33,-766.58 -2434.67,-287.8l-2806.84 1722.38c-1105.86,754.97 -2150.7,1534.02 -3130.43,2335.35 8.96,4.57 17.8,9.35 26.76,13.93 -222.13,171.19 -441.25,343.67 -657.32,517.41 -1145.6,921.22 -2198.76,1875.69 -3153.37,2860.78 -966.46,997.32 -1831.15,2024.63 -2588.36,3079.42 1891.7,1058.12 3482.9,2588.95 4613.72,4432.78 119.97,-297.28 247.88,-593.25 383.75,-887.85 1076.27,-2333.68 2649.68,-4555.19 4666.1,-6642.14 206.5,-213.72 438.51,-459.27 614.74,-645.78l53.55 -56.67c4142.23,3597.17 6761.78,8901.57 6761.78,14818.22 0,5914.21 -2617.31,11216.69 -6756.45,14813.85 -96.31,-98.27 -204.26,-210.42 -330.95,-342.06 -96.13,-99.89 -209.17,-217.35 -342.67,-355.52 -2016.43,-2086.97 -3589.83,-4308.47 -4666.1,-6642.15 -135.87,-294.6 -263.78,-590.57 -383.75,-887.84 -1130.83,1843.83 -2722.03,3374.68 -4613.73,4432.79 757.2,1054.79 1621.91,2082.09 2588.37,3079.41 954.61,985.09 2007.78,1939.57 3153.38,2860.79 216.02,173.71 435.1,346.15 657.18,517.3 -8.96,4.58 -17.8,9.36 -26.76,13.93 978.94,800.69 2022.87,1579.13 3127.74,2333.54l2809.66 1724.01c780.34,478.74 1787.12,359.81 2434.67,-287.48l3987.42 -3987.85c647.56,-647.34 766.59,-1654.17 287.28,-2434.51l-1928.38 -3142.17c1119.99,-1873.94 1978.64,-3921.82 2526.2,-6093.56l3583.23 -857.95c890.39,-213.1 1518.37,-1009.32 1518.37,-1924.73l0 -5639.27c0,-915.62 -627.98,-1711.67 -1518.37,-1924.83z"/>
  <circle class="fil1" cx="23846.87" cy="27500" r="10712.39"/>
 </g>
</svg>
